<svg width="810" height="766" viewBox="0 0 810 766" fill="none" xmlns="http://www.w3.org/2000/svg">
<path d="M336.319 687.925C298.696 704.085 260.219 712.929 218.225 707.755C171.418 701.985 128.734 665.038 103.499 627.06C94.1239 612.953 86.3525 597.015 86.1267 580.082C85.6197 540.964 122.165 534.204 153.839 538.469C171.693 540.864 188.402 547.88 204.921 554.83C232.348 566.378 263.93 570.876 288.944 587.731C297.339 593.405 303.825 600.456 313.404 604.357C328.305 610.431 345.007 612.668 360.258 618.086C373.281 622.738 388.027 630.828 388.946 644.621C389.871 658.767 375.701 668.746 363.1 675.224C354.183 679.836 345.283 684.091 336.319 687.925Z" fill="url(#paint0_linear_59_3)"/>
<path d="M161.723 194.324C218.746 97.226 346.773 51.3765 454.805 79.4319C506.899 92.9691 551.928 125.299 593.724 159.183C630.566 189.048 666.536 221.505 692.96 261.264C711.002 288.402 724.804 321.444 735.052 352.463C750.378 398.91 743.234 460.511 681.87 460.038C667.472 459.928 654.739 455.585 641.043 451.952C629.964 449.005 619.484 451.89 608.113 450.84C579.49 448.203 551.518 439.555 524.914 429.023C470.694 407.536 420.428 376.817 364.915 358.51C319.423 343.532 271.485 337.394 223.686 340.429C203.521 341.712 182.413 344.507 163.789 336.669C117.883 317.329 133.958 256.051 148.358 221.23C152.17 211.956 156.636 202.965 161.723 194.324Z" fill="url(#paint1_linear_59_3)"/>
<path d="M657.327 176.067C668.328 184.796 710.815 207.815 709.633 177.625C709.328 170.105 705.447 163.037 700.453 157.841C694.739 151.876 688.511 148.957 683.891 141.875C678.245 133.327 671.933 125.36 665.036 118.075C650.921 102.897 634.694 89.0813 615.749 83.6904C602.461 79.9148 580.55 82.5127 575.468 99.5587C568.063 124.373 606.779 126.304 619.074 134.369C630.741 142 637.977 155.949 647.533 166.787C650.551 170.204 653.83 173.31 657.327 176.067Z" fill="url(#paint2_linear_59_3)"/>
<path d="M463.325 159.136C486.172 170.653 503.942 188.965 525.021 203.271C560.114 227.085 606.237 229.415 645.715 244.992C685.97 260.887 717.329 287.626 733.358 328.068C754.062 380.268 759.839 443.576 748.784 499.352C736.608 560.749 701.38 603.304 647.791 633.648C594.234 663.973 533.785 680.44 472.852 687C466.973 687.639 461.095 688.159 455.188 688.583C322.501 698.018 142.77 662.83 88.2708 523.187C87.7715 521.911 87.2895 520.634 86.8051 519.339C81.1115 503.756 77.3039 487.548 75.4635 471.061C68.7941 412.62 74.8308 347.24 91.7974 290.938C103.207 253.035 130.933 219.805 160.846 195.466C202.875 161.271 256.127 149.769 309.404 142.518C348.855 137.15 393.363 133.224 431.831 145.937C442.644 149.544 453.172 153.956 463.325 159.136Z" fill="url(#paint3_linear_59_3)"/>
<path d="M389.175 372.624C390.775 376.434 395.162 378.225 398.972 376.624L414.662 370.032C422.649 366.676 431.309 365.191 439.952 365.793C442.529 365.973 445.197 365.485 447.706 364.228C454.353 360.897 457.561 353.005 455.123 345.981C452.261 337.734 443.098 333.735 435.177 337.063C433.031 337.964 431.206 339.307 429.763 340.942C423.971 347.503 416.931 352.845 408.862 356.236L393.175 362.827C389.365 364.427 387.574 368.814 389.175 372.624Z" fill="#FB4C47"/>
<path d="M314.515 456.692C311.352 455.4 307.74 456.918 306.449 460.081L301.13 473.107C298.423 479.739 294.228 485.669 288.823 490.37C287.212 491.771 285.938 493.616 285.206 495.818C283.267 501.651 286.005 508.14 291.537 510.822C298.031 513.97 305.726 510.951 308.411 504.375C309.138 502.594 309.42 500.742 309.309 498.942C308.859 491.72 309.852 484.482 312.587 477.783L317.905 464.758C319.195 461.595 317.678 457.983 314.515 456.692Z" fill="#C63F3B"/>
<path d="M362.488 339.204C365.798 340.556 369.577 338.968 370.928 335.658L376.494 322.027C379.328 315.087 383.717 308.882 389.372 303.963C391.058 302.496 392.392 300.565 393.158 298.262C395.187 292.157 392.321 285.367 386.533 282.561C379.737 279.267 371.684 282.426 368.875 289.307C368.114 291.171 367.819 293.109 367.936 294.992C368.406 302.55 367.367 310.124 364.505 317.135L358.941 330.764C357.59 334.074 359.178 337.853 362.488 339.204Z" fill="#C63F3B"/>
<path d="M360.947 441.773C357.137 443.374 355.346 447.76 356.947 451.571L363.539 467.261C366.895 475.248 368.38 483.908 367.778 492.551C367.598 495.127 368.086 497.795 369.343 500.304C372.674 506.952 380.566 510.159 387.59 507.722C395.837 504.86 399.836 495.696 396.508 487.776C395.607 485.63 394.264 483.805 392.629 482.362C386.068 476.57 380.726 469.53 377.335 461.461L370.744 445.774C369.144 441.964 364.757 440.173 360.947 441.773Z" fill="#FB4C47"/>
<path d="M392.627 482.363C386.066 476.57 380.723 469.531 377.333 461.462L370.742 445.774C369.141 441.964 364.755 440.173 360.944 441.774C357.134 443.375 355.343 447.761 356.944 451.571L363.535 467.259C366.925 475.328 372.268 482.367 378.829 488.16C380.464 489.603 381.807 491.428 382.708 493.573C384.852 498.676 383.951 504.293 380.837 508.41C383.059 508.698 385.367 508.493 387.588 507.723C395.834 504.861 399.834 495.697 396.506 487.776C395.604 485.631 394.261 483.806 392.627 482.363Z" fill="#C63F3B"/>
<path d="M277.029 386.223C289.475 380.994 295.326 366.665 290.096 354.218C284.867 341.772 270.538 335.921 258.091 341.151C245.645 346.38 239.794 360.709 245.024 373.156C250.253 385.602 264.582 391.453 277.029 386.223Z" fill="#FF8F8C"/>
<path d="M258.097 341.15C255.69 342.161 253.533 343.516 251.652 345.129C261.947 344.232 272.086 349.976 276.304 360.015C280.522 370.054 277.528 381.316 269.681 388.041C272.15 387.826 274.627 387.234 277.034 386.223C289.481 380.993 295.331 366.664 290.102 354.218C284.872 341.771 270.543 335.921 258.097 341.15Z" fill="#FB4C47"/>
<path d="M371.405 466.668C412.046 449.593 431.149 402.805 414.074 362.164C396.998 321.524 350.21 302.42 309.57 319.496C268.929 336.571 249.826 383.359 266.901 424C283.976 464.64 330.765 483.744 371.405 466.668Z" fill="#FB4C47"/>
<path d="M309.57 319.495C307.243 320.473 304.991 321.552 302.808 322.718C341.674 310.481 384.179 329.647 400.277 367.961C416.375 406.274 400.314 450.047 364.371 469.242C366.731 468.498 369.079 467.645 371.406 466.668C412.047 449.592 431.15 402.804 414.075 362.163C396.999 321.523 350.211 302.42 309.57 319.495Z" fill="#C63F3B"/>
<path d="M363.796 371.281C372.051 367.812 375.931 358.309 372.463 350.053C368.994 341.798 359.491 337.918 351.235 341.386C342.98 344.855 339.1 354.359 342.568 362.614C346.037 370.869 355.541 374.749 363.796 371.281Z" fill="#C63F3B"/>
<path d="M351.234 341.387C348.745 342.432 346.657 344.03 345.045 345.974C350.874 346.458 356.241 350.085 358.664 355.851C361.086 361.617 359.921 367.989 356.186 372.491C358.703 372.7 361.305 372.327 363.794 371.281C372.05 367.813 375.93 358.309 372.462 350.054C368.993 341.798 359.489 337.918 351.234 341.387Z" fill="white"/>
<path d="M330.514 442.998C336.102 440.651 338.729 434.217 336.381 428.629C334.033 423.041 327.6 420.414 322.011 422.762C316.423 425.11 313.796 431.543 316.144 437.131C318.492 442.72 324.926 445.346 330.514 442.998Z" fill="white"/>
<path d="M419.277 440.421C426.898 437.22 430.48 428.447 427.278 420.827C424.076 413.206 415.303 409.624 407.683 412.826C400.063 416.028 396.481 424.801 399.683 432.421C402.884 440.041 411.657 443.623 419.277 440.421Z" fill="#FB4C47"/>
<path d="M407.682 412.827C405.168 413.883 403.097 415.548 401.561 417.576C406.686 418.229 411.334 421.518 413.48 426.625C415.625 431.731 414.721 437.352 411.6 441.471C414.124 441.793 416.763 441.479 419.277 440.423C426.897 437.221 430.479 428.448 427.277 420.828C424.076 413.208 415.303 409.625 407.682 412.827Z" fill="#C63F3B"/>
<path d="M291.791 413.54C293.392 417.35 291.601 421.736 287.791 423.337L272.101 429.929C264.114 433.285 256.992 438.432 251.373 445.026C249.698 446.992 247.482 448.556 244.828 449.468C237.797 451.885 229.915 448.652 226.604 441.994C222.717 434.179 226.274 424.834 234.195 421.506C236.341 420.605 238.577 420.241 240.755 420.355C249.495 420.81 258.238 419.521 266.307 416.131L281.994 409.54C285.804 407.939 290.19 409.73 291.791 413.54Z" fill="#C63F3B"/>
<path d="M320.035 344.389C323.845 342.788 325.636 338.402 324.035 334.591L317.443 318.902C314.087 310.914 312.603 302.254 313.205 293.612C313.384 291.035 312.896 288.367 311.639 285.858C308.309 279.211 300.417 276.003 293.392 278.44C285.146 281.302 281.146 290.466 284.474 298.387C285.376 300.532 286.719 302.357 288.353 303.8C294.914 309.593 300.257 316.632 303.647 324.701L310.238 340.389C311.838 344.199 316.225 345.99 320.035 344.389Z" fill="#FB4C47"/>
<path d="M311.64 285.858C308.31 279.21 300.417 276.003 293.393 278.44C290.459 279.458 288.067 281.276 286.347 283.55C291.154 284.174 295.565 287.11 297.842 291.655C299.099 294.164 299.587 296.832 299.408 299.409C298.806 308.051 300.29 316.712 303.646 324.699L310.238 340.389C311.839 344.198 316.226 345.99 320.036 344.389C323.846 342.788 325.637 338.402 324.036 334.591L317.444 318.902C314.088 310.914 312.604 302.254 313.205 293.612C313.385 291.035 312.897 288.367 311.64 285.858Z" fill="#C63F3B"/>
<path d="M436.738 337.452C434.577 338.313 432.729 339.621 431.257 341.229C430.996 341.513 430.73 341.792 430.465 342.071C435.903 342.84 440.756 346.584 442.612 352.269C444.2 357.131 443.107 362.354 440.087 366.184C440.385 366.205 440.684 366.223 440.982 366.249C443.554 366.475 446.228 366.037 448.759 364.827C455.462 361.621 458.813 353.793 456.505 346.729C453.797 338.436 444.714 334.271 436.738 337.452Z" fill="#C63F3B"/>
<g opacity="0.63">
<path d="M495.882 512.024C497.098 513.741 499.475 514.147 501.192 512.931L508.261 507.924C511.86 505.375 516 503.682 520.361 503.028C521.661 502.833 522.933 502.296 524.041 501.394C526.977 499.006 527.7 494.73 525.714 491.509C523.382 487.727 518.387 486.75 514.818 489.278C513.851 489.962 513.093 490.831 512.556 491.803C510.401 495.702 507.493 499.134 503.857 501.709L496.789 506.715C495.072 507.93 494.666 510.308 495.882 512.024Z" fill="#FFC700"/>
<path d="M462.189 552.854C460.475 552.561 458.848 553.714 458.555 555.428L457.349 562.488C456.735 566.082 455.305 569.491 453.138 572.424C452.492 573.298 452.062 574.355 451.942 575.53C451.621 578.642 453.698 581.565 456.743 582.287C460.317 583.135 463.808 580.786 464.417 577.222C464.582 576.257 464.517 575.305 464.263 574.423C463.243 570.884 462.938 567.178 463.558 563.547L464.763 556.488C465.056 554.774 463.903 553.147 462.189 552.854Z" fill="#D09700"/>
<path d="M473.068 489.179C474.862 489.485 476.564 488.279 476.871 486.485L478.133 479.098C478.775 475.337 480.272 471.769 482.539 468.701C483.215 467.786 483.665 466.679 483.791 465.45C484.126 462.193 481.953 459.135 478.767 458.379C475.027 457.492 471.373 459.95 470.736 463.68C470.564 464.69 470.631 465.685 470.897 466.608C471.964 470.312 472.284 474.19 471.635 477.989L470.374 485.376C470.068 487.17 471.274 488.872 473.068 489.179Z" fill="#D09700"/>
<path d="M483.613 540.32C481.896 541.536 481.49 543.913 482.706 545.63L487.713 552.699C490.262 556.298 491.955 560.438 492.61 564.799C492.805 566.099 493.342 567.371 494.243 568.479C496.631 571.415 500.907 572.138 504.129 570.152C507.911 567.82 508.887 562.825 506.36 559.256C505.675 558.29 504.806 557.531 503.835 556.994C499.935 554.84 496.504 551.931 493.929 548.295L488.923 541.227C487.707 539.51 485.33 539.104 483.613 540.32Z" fill="#FFC700"/>
<path d="M503.834 556.992C499.935 554.838 496.503 551.929 493.928 548.293L488.922 541.225C487.706 539.508 485.329 539.102 483.612 540.318C481.895 541.534 481.489 543.911 482.705 545.628L487.712 552.697C490.287 556.332 493.718 559.241 497.617 561.396C498.589 561.932 499.458 562.691 500.142 563.658C501.771 565.957 501.943 568.847 500.849 571.237C501.986 571.135 503.11 570.779 504.128 570.15C507.91 567.819 508.887 562.824 506.359 559.255C505.675 558.288 504.806 557.529 503.834 556.992Z" fill="#D09700"/>
<path d="M435.788 521.973C441.396 518.001 442.723 510.236 438.751 504.628C434.779 499.02 427.013 497.693 421.405 501.665C415.798 505.637 414.471 513.403 418.443 519.011C422.415 524.619 430.181 525.945 435.788 521.973Z" fill="#D09700"/>
<path d="M421.406 501.665C420.322 502.433 419.399 503.344 418.642 504.353C423.659 502.772 429.331 504.507 432.535 509.03C435.738 513.554 435.493 519.48 432.336 523.688C433.539 523.309 434.704 522.741 435.789 521.973C441.397 518.001 442.723 510.235 438.751 504.627C434.78 499.019 427.014 497.693 421.406 501.665Z" fill="#FFC700"/>
<path d="M491.556 551.537C509.867 538.568 514.198 513.21 501.229 494.899C488.26 476.588 462.902 472.257 444.591 485.226C426.279 498.195 421.949 523.553 434.917 541.864C447.886 560.175 473.244 564.506 491.556 551.537Z" fill="#FFC700"/>
<path d="M444.597 485.225C443.549 485.968 442.548 486.753 441.592 487.573C459.556 477.204 482.792 482.039 495.019 499.301C507.245 516.564 504.094 540.088 488.35 553.592C489.441 552.962 490.514 552.279 491.562 551.537C509.874 538.567 514.205 513.21 501.236 494.898C488.266 476.587 462.909 472.256 444.597 485.225Z" fill="#D09700"/>
<path d="M472.679 507.759C474.033 506.8 474.353 504.925 473.394 503.57C472.435 502.216 470.56 501.896 469.205 502.855C467.851 503.814 467.531 505.689 468.49 507.044C469.449 508.398 471.324 508.718 472.679 507.759Z" fill="white"/>
<path d="M468.622 544.287C471.14 542.503 471.736 539.016 469.952 536.498C468.169 533.98 464.682 533.384 462.164 535.167C459.645 536.951 459.05 540.438 460.833 542.956C462.617 545.474 466.104 546.07 468.622 544.287Z" fill="white"/>
<path d="M450.986 520.846C454.842 518.116 455.753 512.777 453.023 508.922C450.292 505.067 444.954 504.155 441.098 506.885C437.243 509.616 436.331 514.954 439.062 518.81C441.792 522.665 447.131 523.577 450.986 520.846Z" fill="white"/>
<path d="M512.446 533.213C515.879 530.781 516.691 526.026 514.26 522.593C511.828 519.159 507.073 518.347 503.64 520.779C500.206 523.211 499.394 527.965 501.826 531.399C504.258 534.832 509.012 535.644 512.446 533.213Z" fill="#FFC700"/>
<path d="M503.641 520.779C502.508 521.581 501.663 522.637 501.123 523.815C503.742 523.574 506.415 524.695 508.044 526.996C509.674 529.297 509.845 532.19 508.748 534.581C510.038 534.463 511.315 534.016 512.448 533.213C515.881 530.781 516.693 526.027 514.261 522.593C511.83 519.16 507.075 518.347 503.641 520.779Z" fill="#D09700"/>
<path d="M446.137 533.919C447.353 535.636 446.947 538.013 445.23 539.229L438.161 544.236C434.562 546.785 431.591 550.128 429.526 554.025C428.91 555.186 427.982 556.208 426.764 556.954C423.536 558.931 419.263 558.194 416.883 555.251C414.089 551.796 414.826 546.76 418.395 544.232C419.362 543.548 420.433 543.12 421.528 542.936C425.921 542.198 430.123 540.593 433.759 538.018L440.827 533.012C442.544 531.796 444.921 532.202 446.137 533.919Z" fill="#D09700"/>
<path d="M452.539 496.443C454.255 495.227 454.661 492.85 453.446 491.133L448.439 484.064C445.89 480.465 444.197 476.325 443.542 471.964C443.347 470.664 442.81 469.392 441.909 468.284C439.52 465.348 435.245 464.625 432.023 466.611C428.241 468.943 427.264 473.938 429.792 477.507C430.477 478.473 431.345 479.232 432.317 479.769C436.216 481.923 439.648 484.832 442.223 488.468L447.229 495.536C448.444 497.253 450.822 497.659 452.539 496.443Z" fill="#FFC700"/>
<path d="M441.907 468.284C439.518 465.348 435.242 464.625 432.021 466.611C430.675 467.441 429.687 468.608 429.083 469.928C431.541 469.707 434.056 470.68 435.69 472.687C436.591 473.795 437.128 475.067 437.323 476.367C437.978 480.729 439.671 484.868 442.22 488.467L447.226 495.536C448.442 497.253 450.82 497.659 452.536 496.443C454.253 495.227 454.659 492.85 453.443 491.133L448.436 484.064C445.888 480.465 444.194 476.326 443.54 471.964C443.345 470.664 442.808 469.392 441.907 468.284Z" fill="#D09700"/>
</g>
<path d="M547.172 428.391C544.815 427.841 542.458 429.305 541.907 431.662L539.64 441.369C538.486 446.31 536.213 450.927 532.956 454.819C531.985 455.979 531.3 457.412 531.033 459.034C530.327 463.332 532.968 467.566 537.136 468.824C542.031 470.302 547.078 467.331 548.222 462.431C548.532 461.104 548.523 459.776 548.244 458.53C547.123 453.528 547.01 448.353 548.176 443.361L550.443 433.656C550.994 431.299 549.529 428.942 547.172 428.391Z" fill="#1DB776"/>
<path d="M532.972 364.088C534.672 363.031 535.194 360.797 534.138 359.097L529.789 352.097C527.575 348.534 526.204 344.506 525.833 340.327C525.722 339.081 525.285 337.842 524.493 336.738C522.393 333.814 518.374 332.882 515.201 334.583C511.476 336.58 510.262 341.268 512.458 344.802C513.052 345.759 513.834 346.529 514.726 347.095C518.305 349.364 521.397 352.323 523.633 355.923L527.982 362.922C529.038 364.622 531.272 365.144 532.972 364.088Z" fill="#128E5A"/>
<path d="M572.195 427.223C570.416 428.328 569.87 430.666 570.976 432.445L575.526 439.77C577.843 443.499 579.277 447.714 579.666 452.087C579.782 453.391 580.239 454.687 581.068 455.842C583.266 458.903 587.471 459.878 590.791 458.098C594.69 456.007 595.96 451.102 593.662 447.405C593.04 446.403 592.222 445.597 591.289 445.005C587.544 442.63 584.308 439.534 581.968 435.767L577.417 428.443C576.312 426.664 573.974 426.118 572.195 427.223Z" fill="#128E5A"/>
<path d="M524.083 391.233C524.633 388.875 523.169 386.518 520.811 385.968L511.105 383.7C506.164 382.546 501.547 380.273 497.655 377.017C496.495 376.046 495.062 375.36 493.44 375.094C489.143 374.388 484.908 377.028 483.65 381.197C482.172 386.091 485.143 391.138 490.043 392.283C491.37 392.593 492.698 392.583 493.944 392.304C498.946 391.184 504.121 391.07 509.113 392.236L518.818 394.503C521.175 395.054 523.532 393.59 524.083 391.233Z" fill="#1DB776"/>
<path d="M493.945 392.304C498.948 391.184 504.123 391.071 509.115 392.237L518.82 394.504C521.177 395.054 523.534 393.59 524.085 391.233C524.635 388.875 523.171 386.518 520.814 385.968L511.108 383.701C506.117 382.535 500.942 382.648 495.939 383.768C494.693 384.048 493.366 384.057 492.039 383.747C488.882 383.01 486.528 380.652 485.646 377.759C484.745 378.714 484.049 379.879 483.651 381.197C482.174 386.092 485.144 391.138 490.045 392.283C491.372 392.593 492.699 392.584 493.945 392.304Z" fill="#128E5A"/>
<path d="M579.273 370.534C577.475 378.234 582.259 385.934 589.959 387.733C597.659 389.532 605.359 384.748 607.158 377.047C608.956 369.347 604.172 361.647 596.472 359.849C588.772 358.05 581.072 362.834 579.273 370.534Z" fill="#128E5A"/>
<path d="M607.16 377.049C607.508 375.56 607.607 374.072 607.489 372.625C604.375 377.816 598.166 380.649 591.955 379.198C585.744 377.748 581.433 372.457 580.941 366.424C580.194 367.668 579.623 369.046 579.275 370.536C577.477 378.236 582.261 385.936 589.961 387.735C597.661 389.533 605.361 384.749 607.16 377.049Z" fill="#1DB776"/>
<path d="M508.681 387.636C502.808 412.779 518.429 437.922 543.571 443.795C568.714 449.668 593.857 434.047 599.73 408.904C605.603 383.762 589.982 358.619 564.839 352.746C539.697 346.873 514.554 362.494 508.681 387.636Z" fill="#1DB776"/>
<path d="M599.738 408.903C600.075 407.464 600.337 406.024 600.535 404.588C592.977 427.226 569.277 440.795 545.574 435.258C521.871 429.721 506.634 407.058 509.887 383.415C509.428 384.789 509.026 386.196 508.689 387.636C502.816 412.778 518.437 437.921 543.58 443.794C568.723 449.667 593.865 434.046 599.738 408.903Z" fill="#128E5A"/>
<path d="M556.528 416.818C555.336 421.925 558.509 427.032 563.616 428.225C568.723 429.418 573.83 426.245 575.023 421.138C576.216 416.031 573.043 410.923 567.936 409.73C562.829 408.537 557.721 411.71 556.528 416.818Z" fill="#128E5A"/>
<path d="M575.033 421.136C575.392 419.596 575.353 418.057 574.985 416.624C572.751 419.222 569.186 420.521 565.619 419.688C562.052 418.854 559.431 416.111 558.58 412.792C557.616 413.914 556.898 415.276 556.538 416.816C555.345 421.923 558.518 427.031 563.625 428.224C568.732 429.417 573.84 426.244 575.033 421.136Z" fill="white"/>
<path d="M533.964 376.38C533.156 379.837 535.304 383.294 538.762 384.102C542.219 384.91 545.676 382.762 546.484 379.304C547.292 375.847 545.144 372.39 541.686 371.582C538.229 370.774 534.771 372.922 533.964 376.38Z" fill="white"/>
<path d="M504.671 419.36C503.569 424.075 506.499 428.79 511.213 429.891C515.928 430.992 520.643 428.063 521.745 423.348C522.846 418.633 519.917 413.918 515.202 412.817C510.487 411.716 505.772 414.645 504.671 419.36Z" fill="#1DB776"/>
<path d="M521.749 423.347C522.112 421.791 522.034 420.236 521.601 418.811C519.529 421.017 516.371 422.091 513.211 421.353C510.052 420.615 507.697 418.253 506.816 415.357C505.796 416.443 505.038 417.803 504.674 419.358C503.573 424.073 506.502 428.788 511.217 429.89C515.932 430.991 520.647 428.062 521.749 423.347Z" fill="#128E5A"/>
<path d="M561.243 368.146C558.886 367.596 557.422 365.239 557.972 362.882L560.24 353.175C561.394 348.234 561.402 343.087 560.206 338.156C559.85 336.686 559.87 335.097 560.35 333.525C561.62 329.36 565.863 326.733 570.158 327.452C575.201 328.295 578.409 333.194 577.265 338.095C576.955 339.422 576.358 340.608 575.556 341.601C572.335 345.59 569.941 350.179 568.775 355.17L566.508 364.876C565.958 367.232 563.601 368.697 561.243 368.146Z" fill="#128E5A"/>
<path d="M584.332 405.307C583.781 407.664 585.245 410.021 587.603 410.572L597.309 412.839C602.251 413.994 606.868 416.267 610.759 419.523C611.92 420.494 613.353 421.18 614.974 421.446C619.272 422.152 623.506 419.512 624.765 415.343C626.242 410.448 623.271 405.401 618.371 404.257C617.044 403.947 615.717 403.956 614.47 404.235C609.468 405.356 604.293 405.469 599.301 404.303L589.596 402.036C587.24 401.486 584.882 402.95 584.332 405.307Z" fill="#1DB776"/>
<path d="M614.973 421.444C619.27 422.15 623.505 419.51 624.763 415.341C625.289 413.6 625.249 411.84 624.762 410.243C622.814 412.308 619.906 413.391 616.967 412.908C615.345 412.642 613.912 411.956 612.752 410.985C608.86 407.729 604.243 405.456 599.302 404.301L589.595 402.034C587.238 401.484 584.881 402.948 584.33 405.305C583.78 407.663 585.244 410.02 587.602 410.57L597.308 412.837C602.249 413.992 606.866 416.265 610.758 419.521C611.918 420.492 613.351 421.178 614.973 421.444Z" fill="#128E5A"/>
<path d="M548.22 462.437C548.53 461.11 548.521 459.784 548.242 458.538C548.192 458.318 548.147 458.096 548.102 457.875C545.911 460.23 542.486 461.308 539.132 460.295C536.264 459.429 534.12 457.154 533.292 454.42C533.182 454.556 533.073 454.694 532.961 454.828C531.99 455.988 531.305 457.42 531.039 459.041C530.333 463.337 532.972 467.569 537.139 468.827C542.032 470.304 547.076 467.335 548.22 462.437Z" fill="#128E5A"/>
<defs>
<linearGradient id="paint0_linear_59_3" x1="83.0592" y1="585.687" x2="132.076" y2="721.827" gradientUnits="userSpaceOnUse">
<stop stop-color="#FFD8D8"/>
<stop offset="1" stop-color="#FFF8F8"/>
</linearGradient>
<linearGradient id="paint1_linear_59_3" x1="729.47" y1="240.693" x2="292.853" y2="3.3448" gradientUnits="userSpaceOnUse">
<stop stop-color="#FFF8F8"/>
<stop offset="1" stop-color="#FFCFCF"/>
</linearGradient>
<linearGradient id="paint2_linear_59_3" x1="710.658" y1="177.027" x2="552.938" y2="121.505" gradientUnits="userSpaceOnUse">
<stop stop-color="#FFD7D7"/>
<stop offset="1" stop-color="#FFF9F9"/>
</linearGradient>
<linearGradient id="paint3_linear_59_3" x1="704.235" y1="611.48" x2="64.0665" y2="294.53" gradientUnits="userSpaceOnUse">
<stop stop-color="#FFCFCF"/>
<stop offset="1" stop-color="#FFF8F8"/>
</linearGradient>
</defs>
</svg>
